<?xml version="1.0" encoding="utf-8"?>
<!-- Generator: Adobe Illustrator 26.0.3, SVG Export Plug-In . SVG Version: 6.00 Build 0)  -->
<svg version="1.1" id="Layer_1" xmlns="http://www.w3.org/2000/svg" xmlns:xlink="http://www.w3.org/1999/xlink" x="0px" y="0px"
	 viewBox="0 0 64 64" style="enable-background:new 0 0 64 64;" xml:space="preserve">
<style type="text/css">
	.st0{fill:#FBB03B;stroke:#000000;stroke-miterlimit:10;}
	.st1{fill:#C7B299;stroke:#000000;stroke-miterlimit:10;}
	.st2{fill:#603813;}
</style>
<path class="st0" d="M54.5,23.5C54.5,11.1,44.4,1,32,1S9.5,10.6,9.5,23c0,0.2,0,0,0,1c0,0,0,0,0,0c0,11,17,39,22.5,39
	s22.5-28,22.5-39c0,0,0,0,0,0C54.5,23.8,54.5,23.7,54.5,23.5z"/>
<circle class="st1" cx="32" cy="23.5" r="15.5"/>
<ellipse class="st2" cx="32" cy="27" rx="5.5" ry="4"/>
<ellipse class="st2" cx="31.5" cy="18.5" rx="2" ry="2.5"/>
<ellipse transform="matrix(0.4226 -0.9063 0.9063 0.4226 3.0594 45.8312)" class="st2" cx="37.5" cy="20.5" rx="2.5" ry="2"/>
<ellipse transform="matrix(0.866 -0.5 0.5 0.866 -7.1973 24.1683)" class="st2" cx="41.5" cy="25.5" rx="2.5" ry="2"/>
<ellipse transform="matrix(0.9063 -0.4226 0.4226 0.9063 -6.2445 12.8617)" class="st2" cx="25.9" cy="20.5" rx="2" ry="2.5"/>
<ellipse transform="matrix(0.5 -0.866 0.866 0.5 -11.1534 31.7106)" class="st2" cx="21.9" cy="25.5" rx="2" ry="2.5"/>
</svg>
